<svg width="200" height="200" viewBox="0 0 200 200" fill="none" xmlns="http://www.w3.org/2000/svg">
<mask id="mask0_473_504" style="mask-type:alpha" maskUnits="userSpaceOnUse" x="0" y="0" width="200" height="200">
<rect width="200" height="200" fill="#D9D9D9"/>
</mask>
<g mask="url(#mask0_473_504)">
<path d="M99.999 165.385C90.7149 165.385 82.0183 163.622 73.9092 160.096C65.8002 156.57 58.7195 151.781 52.6671 145.729C46.6148 139.677 41.8258 132.596 38.3003 124.487C34.7746 116.378 33.0117 107.682 33.0117 98.3974C33.0117 89.1131 34.7746 80.4165 38.3003 72.3076C41.8258 64.1986 46.6148 57.1178 52.6671 51.0655C58.7195 45.0131 65.8002 40.2242 73.9092 36.6986C82.0183 33.1729 90.7149 31.4101 99.999 31.4101V13.7817L128.204 41.987L99.999 70.2055V52.5688C87.3067 52.5688 76.4947 57.0367 67.5632 65.9726C58.6315 74.9086 54.1657 85.7256 54.1657 98.4238C54.1657 106.184 55.9365 113.373 59.4782 119.992C63.0199 126.611 67.8516 131.976 73.9734 136.09C75.7683 132.842 78.5296 130.077 82.2574 127.795C85.9851 125.512 90.2751 124.079 95.1271 123.493C94.7598 121.004 94.27 118.515 93.6578 116.026C93.0456 113.536 92.3601 111.255 91.6015 109.183C90.3089 110.23 88.8987 111.045 87.3709 111.627C85.8431 112.209 84.1978 112.5 82.4349 112.5C78.5567 112.5 75.226 111.115 72.443 108.346C69.6598 105.577 68.2682 102.248 68.2682 98.3599V91.2899C68.2682 89.2867 67.9664 87.4304 67.3628 85.7211C66.7592 84.0117 65.8858 82.361 64.7426 80.769C70.6127 80.6302 75.8371 81.1574 80.4157 82.3507C84.4074 83.4051 88.0469 85.1333 91.3342 87.5351C94.6215 89.9369 96.3345 93.5806 96.4734 98.4663C96.4734 99.5388 96.3692 100.522 96.1609 101.416C95.9526 102.309 95.624 103.205 95.1753 104.102C93.6581 102.914 92.1408 101.844 90.6234 100.893C89.1062 99.9424 87.5306 99.1104 85.8965 98.3974C87.9371 99.9892 90.2426 102.359 92.8132 105.507C95.3837 108.654 97.779 112.385 99.999 116.699C102.456 110.961 105.432 105.302 108.925 99.7195C112.419 94.1372 116.495 88.9956 121.153 84.2947C118.493 86.1965 115.918 88.1837 113.429 90.2563C110.939 92.329 108.519 94.5939 106.169 97.0511C105.41 95.7371 104.78 94.2833 104.278 92.6897C103.776 91.0961 103.525 89.4729 103.525 87.8203C103.525 82.9485 105.245 78.7925 108.685 75.3524C112.125 71.9122 116.298 70.1922 121.203 70.1922H128.21C130.896 70.1922 133.115 69.8396 134.867 69.1345C136.618 68.4293 138.078 67.6067 139.246 66.6665C140.566 65.6088 141.587 64.4336 142.307 63.1409C142.756 71.0576 142.376 78.1088 141.169 84.2947C140.026 89.5831 137.99 94.4224 135.06 98.8126C132.131 103.203 127.503 105.398 121.176 105.398C119.418 105.398 117.749 105.164 116.167 104.696C114.585 104.227 113.15 103.583 111.861 102.764C111.041 104.988 110.103 107.944 109.049 111.632C107.994 115.32 107.173 119.289 106.585 123.542C111.022 124.366 114.933 125.898 118.319 128.137C121.705 130.375 124.273 133.026 126.025 136.09C132.038 131.98 136.842 126.637 140.438 120.062C144.034 113.486 145.832 106.265 145.832 98.3974H166.986C166.986 107.682 165.223 116.378 161.698 124.487C158.172 132.596 153.383 139.677 147.331 145.729C141.279 151.781 134.198 156.57 126.089 160.096C117.98 163.622 109.283 165.385 99.999 165.385Z" fill="#634C39"/>
</g>
</svg>
