<svg width="156" height="156" viewBox="0 0 156 156" fill="none" xmlns="http://www.w3.org/2000/svg">
<path d="M29.964 5.08459C24.281 13.3407 20.8703 21.0265 19.9569 27.2878L27.2505 39.2184L35.9718 29.0205C36.2363 22.5572 34.2991 14.1893 29.964 5.08337V5.08459ZM143.965 5.97946C135.293 10.9855 128.917 16.4531 125.398 21.709L126.845 35.6295L139.109 30.164C142.122 24.4429 143.965 16.06 143.965 5.97946H143.965ZM116.01 14.2913C112.916 20.7007 110.891 26.7348 109.868 32.0589L115.467 49.6351L121.494 39.1995L119.513 20.2419H119.522C118.433 18.2112 117.261 16.226 116.009 14.2913H116.01ZM8.30257 24.6132C8.26448 31.732 9.03168 38.0506 10.3973 43.2948L23.0037 56.748L23.9559 44.7415L14.0155 28.4791L14.0246 28.4694C12.17 27.1072 10.2611 25.821 8.30257 24.6132ZM48.7785 27.8222C46.2145 28.8898 43.8151 30.0199 41.5897 31.2024L29.6307 45.2089L28.688 57.2057L44.0558 45.2942C46.1009 40.4485 47.7395 34.55 48.7785 27.8222ZM102.775 34.4114C95.4554 52.1107 97.8514 64.2281 105.174 67.47L111.62 56.3108L105.65 37.5914C104.719 36.5068 103.76 35.4463 102.775 34.4111L102.775 34.4114ZM147.269 34.4778C145.882 34.4693 144.536 34.5034 143.222 34.5631L126.425 42.0468L120.399 52.4915L139.394 48.331C143.323 44.8363 147.343 40.2184 151.172 34.5914C149.844 34.5256 148.539 34.4854 147.268 34.4775L147.269 34.4778ZM78.3807 37.1347C71.2998 44.215 66.5491 51.1512 64.5083 57.1389L69.5161 70.2122L79.9425 61.7571C81.373 55.4488 80.9894 46.8713 78.3807 37.1347ZM4.99854 48.4636C5.99791 67.5888 13.372 77.5033 21.3755 77.2852L22.3944 64.4213L8.96892 50.101C7.65959 49.5217 6.3355 48.9758 4.99854 48.4636ZM48.6359 51.9294C46.7413 52.3269 44.8613 52.7906 42.9992 53.3197L28.0786 64.8789L27.0695 77.5996C35.1413 79.8878 44.4854 71.3331 48.6353 51.9297L48.6359 51.9294ZM53.5292 52.4056C52.2007 59.3936 51.8077 65.7393 52.1965 71.1439L62.1561 86.683L65.27 75.0475L58.4429 57.2425H58.452C56.878 55.5637 55.2359 53.95 53.5298 52.4056H53.5292ZM135.005 55.1289L116.552 59.1563L110.173 70.2012C116.475 75.745 128.588 72.04 140.68 56.2998C138.803 55.8441 136.91 55.4536 135.005 55.1289ZM92.7485 62.9076C90.0332 63.4926 87.4762 64.1751 85.0744 64.9359L70.7632 76.5231L67.6493 88.1592L84.922 79.237C87.8144 74.8422 90.5048 69.3377 92.7482 62.9079L92.7485 62.9076ZM140.013 70.544C132.137 76.7364 126.593 83.0544 123.856 88.7588L127.274 102.327L138.633 95.1761C140.804 89.0854 141.447 80.524 140.013 70.544ZM102.432 73.1627C91.9405 96.7983 84.3358 121.626 83.2462 150.258H88.95C90.0341 122.595 97.3511 98.6352 107.631 75.4765L102.432 73.1624L102.432 73.1627ZM45.951 75.2669C43.4608 94.2633 48.9107 105.344 56.8244 106.574L60.1668 94.1198L49.5594 77.5905C48.3763 76.7858 47.173 76.0111 45.9507 75.2672L45.951 75.2669ZM113.515 82.7415C111.366 89.5187 110.22 95.773 109.964 101.185L118.009 117.819L122.484 106.631L117.829 88.14H117.847C116.537 86.3582 115.095 84.5568 113.515 82.7418L113.515 82.7415ZM21.3566 83.2083C18.7168 105.933 18.8795 128.252 25.0701 150.258H30.9933C24.6323 128.695 24.362 106.682 27.0128 83.8652L21.3572 83.2083H21.3566ZM88.2264 86.5885C86.2115 86.6372 84.2797 86.753 82.4276 86.9313L65.66 95.6048L62.356 107.917C69.8787 111.643 80.6183 104.925 88.2258 86.5885H88.2264ZM151.211 97.8427C148.447 98.0999 145.829 98.468 143.356 98.9378L127.769 108.754L123.294 119.923L141.499 113.124C144.893 109.105 148.219 103.961 151.211 97.8427ZM103.28 104.546C98.5492 123.113 102.642 134.768 110.354 136.928L115.144 124.96L106.584 107.279C105.539 106.365 104.435 105.455 103.28 104.546ZM55.8338 112.344C51.9722 124.908 49.0515 137.495 47.6548 150.258H53.3869C54.7601 138.156 57.558 126.118 61.2798 114.01L55.8335 112.344L55.8338 112.344ZM138.099 120.466L120.428 127.074L115.686 138.919C122.711 143.519 134.172 138.125 143.907 120.818C141.976 120.633 140.039 120.516 138.099 120.466V120.466ZM108.621 142.908C108.05 145.258 107.65 147.709 107.507 150.258H113.201C113.338 148.221 113.673 146.235 114.153 144.26L108.621 142.907L108.621 142.908Z" fill="#634C39"/>
</svg>
