<svg width="300" height="300" viewBox="0 0 300 300" fill="none" xmlns="http://www.w3.org/2000/svg">
<mask id="mask0_473_498" style="mask-type:alpha" maskUnits="userSpaceOnUse" x="0" y="0" width="300" height="300">
<rect width="300" height="300" fill="#D9D9D9"/>
</mask>
<g mask="url(#mask0_473_498)">
<path d="M120.289 121.25L144.014 82.524L128.221 56.4662C126.202 52.9406 123.169 51.1778 119.123 51.1778C115.076 51.1778 112.004 52.9458 109.906 56.4818L84.2066 99.7115L120.289 121.25ZM222.683 193.269L199.231 154.231L235.938 133.077L252.813 161.226C254.624 164.287 255.673 167.684 255.962 171.418C256.25 175.152 255.513 178.574 253.75 181.683C251.987 185.369 249.355 188.221 245.853 190.24C242.352 192.26 238.581 193.269 234.54 193.269H222.683ZM192.308 267.308L150 225L192.308 182.692V203.846H242.548L227.212 234.519C225.272 238.045 222.628 240.865 219.279 242.981C215.93 245.096 212.228 246.154 208.173 246.154H192.308V267.308ZM89.8913 246.154C86.358 246.154 83.153 245.261 80.2763 243.474C77.3998 241.687 75.2885 239.27 73.9422 236.224C72.5962 233.357 71.9352 230.381 71.9591 227.296C71.9831 224.211 72.7884 221.343 74.3751 218.692L83.3654 203.846H128.846V246.154H89.8913ZM63.7501 216.058L46.5626 181.683C44.8478 178.413 44.0825 174.964 44.2666 171.334C44.451 167.704 45.4932 164.335 47.3932 161.226L51.5385 154.231L33.6538 143.341L91.5144 128.798L106.058 186.971L87.8607 175.769L63.7501 216.058ZM206.538 125.529L148.63 110.994L166.875 100.159L133.822 45.1921H171.106C174.808 45.1921 178.289 46.1133 181.551 47.9556C184.812 49.7979 187.412 52.2982 189.351 55.4565L203.197 78.5574L221.082 67.3556L206.538 125.529Z" fill="#634C39"/>
</g>
</svg>
