<svg width="200" height="200" viewBox="0 0 200 200" fill="none" xmlns="http://www.w3.org/2000/svg">
<mask id="mask0_473_517" style="mask-type:alpha" maskUnits="userSpaceOnUse" x="0" y="0" width="200" height="200">
<rect width="200" height="200" fill="#D9D9D9"/>
</mask>
<g mask="url(#mask0_473_517)">
<path d="M131.891 104.487C125.609 98.9742 119.607 93.5522 113.886 88.2211C108.165 82.8899 103.152 77.6762 98.8463 72.5801C94.5407 67.4839 91.1193 62.5748 88.5819 57.8526C86.0445 53.1303 84.7759 48.6218 84.7759 44.3269C84.7759 37.3505 87.1609 31.4772 91.9311 26.7069C96.7013 21.9367 102.575 19.5515 109.551 19.5515C113.729 19.5515 117.748 20.5424 121.61 22.5242C125.473 24.5062 128.899 27.3614 131.891 31.0901C134.882 27.3614 138.309 24.5062 142.171 22.5242C146.034 20.5424 150.053 19.5515 154.231 19.5515C161.207 19.5515 167.08 21.9367 171.851 26.7069C176.621 31.4772 179.006 37.3505 179.006 44.3269C179.006 48.6218 177.737 53.1303 175.2 57.8526C172.663 62.5748 169.241 67.4839 164.936 72.5801C160.63 77.6762 155.638 82.8899 149.96 88.2211C144.281 93.5522 138.258 98.9742 131.891 104.487ZM131.891 87.5963C140.726 79.6582 148.705 71.7683 155.825 63.9265C162.946 56.0846 166.506 49.5514 166.506 44.3269C166.506 40.7586 165.353 37.8205 163.045 35.5128C160.737 33.2051 157.799 32.0513 154.231 32.0513C152.126 32.0513 149.965 32.5801 147.748 33.6378C145.531 34.6955 143.344 36.6027 141.186 39.3592L131.891 50.673L122.596 39.3592C120.438 36.6027 118.251 34.6955 116.034 33.6378C113.817 32.5801 111.656 32.0513 109.551 32.0513C105.983 32.0513 103.045 33.2051 100.737 35.5128C98.4293 37.8205 97.2754 40.7586 97.2754 44.3269C97.2754 49.5514 100.836 56.0846 107.956 63.9265C115.077 71.7683 123.055 79.6582 131.891 87.5963ZM115.224 181.57L54.3267 164.198V175.64H12.6606V95.8336H72.3396L123.365 114.68C127.147 116.079 130.288 118.555 132.788 122.108C135.288 125.66 136.538 129.829 136.538 134.615H157.372C163.355 134.615 168.242 136.643 172.035 140.697C175.828 144.752 177.724 150.096 177.724 156.731V162.019L115.224 181.57ZM25.1602 163.141H41.8269V108.333H25.1602V163.141ZM114.808 168.397L164.551 152.981C164.295 151.132 163.491 149.693 162.139 148.662C160.788 147.631 159.199 147.115 157.372 147.115H117.853C113.814 147.115 110.005 146.851 106.426 146.322C102.847 145.793 99.2843 144.914 95.7373 143.686L80.4807 138.525L84.3909 126.539L100.577 131.955C103.237 132.895 106.287 133.574 109.728 133.99C113.168 134.407 117.938 134.615 124.038 134.615C124.038 132.554 123.574 130.775 122.644 129.279C121.715 127.783 120.491 126.774 118.974 126.25L70.2242 108.333H54.3267V151.282L114.808 168.397Z" fill="#634C39"/>
</g>
</svg>
