<svg width="36" height="36" viewBox="0 0 36 36" fill="none" xmlns="http://www.w3.org/2000/svg">
<path d="M17.8303 0C12.9864 0 12.3816 0.0222878 10.4797 0.106982C8.58082 0.196133 7.28812 0.49479 6.15144 0.936089C4.9791 1.39076 3.98358 2.00145 2.99251 2.99251C2.00145 3.98358 1.38928 4.97762 0.936089 6.15144C0.49479 7.28812 0.194647 8.58082 0.106982 10.4797C0.0178303 12.3816 0 12.9864 0 17.8303C0 22.6742 0.0222878 23.2789 0.106982 25.1808C0.196133 27.0782 0.49479 28.3724 0.936089 29.5091C1.38377 30.6991 2.08554 31.7771 2.99251 32.668C3.88295 33.5756 4.96112 34.2775 6.15144 34.7245C7.28961 35.1643 8.5823 35.4659 10.4797 35.5536C12.3816 35.6427 12.9864 35.6605 17.8303 35.6605C22.6742 35.6605 23.2789 35.6383 25.1808 35.5536C27.0782 35.4644 28.3724 35.1643 29.5091 34.7245C30.6988 34.2762 31.7767 33.5745 32.668 32.668C33.5759 31.7778 34.2779 30.6996 34.7245 29.5091C35.1643 28.3724 35.4659 27.0782 35.5536 25.1808C35.6427 23.2789 35.6605 22.6742 35.6605 17.8303C35.6605 12.9864 35.6383 12.3816 35.5536 10.4797C35.4644 8.5823 35.1643 7.28664 34.7245 6.15144C34.2766 4.9616 33.5748 3.88362 32.668 2.99251C31.7782 2.08412 30.6999 1.38213 29.5091 0.936089C28.3724 0.49479 27.0782 0.194647 25.1808 0.106982C23.2789 0.0178303 22.6742 0 17.8303 0ZM17.8303 3.20945C22.5895 3.20945 23.1571 3.23322 25.0367 3.31494C26.7751 3.39667 27.7186 3.68492 28.3457 3.93158C29.1807 4.25401 29.7721 4.64033 30.3991 5.2629C31.0217 5.88696 31.408 6.47982 31.7305 7.31487C31.9741 7.9419 32.2654 8.88542 32.3441 10.6239C32.4288 12.505 32.4481 13.0696 32.4481 17.8303C32.4481 22.591 32.4258 23.1571 32.3382 25.0367C32.2475 26.7751 31.9578 27.7186 31.7126 28.3457C31.4226 29.1194 30.9666 29.8203 30.3768 30.3991C29.8005 30.9895 29.1001 31.4442 28.3264 31.7305C27.7023 31.9741 26.7439 32.2654 25.0055 32.3441C23.1125 32.4288 22.5553 32.4481 17.7857 32.4481C13.0146 32.4481 12.4574 32.4258 10.5659 32.3382C8.82598 32.2475 7.86761 31.9578 7.24355 31.7126C6.46927 31.4261 5.7691 30.9697 5.19455 30.3768C4.5981 29.8044 4.14066 29.103 3.85728 28.3264C3.61212 27.7023 3.32386 26.7439 3.23322 25.0055C3.16636 23.1333 3.14259 22.5553 3.14259 17.808C3.14259 13.0592 3.16636 12.4797 3.23322 10.5852C3.32386 8.84679 3.61212 7.8899 3.85728 7.26584C4.16931 6.4189 4.56901 5.83941 5.19455 5.21387C5.81713 4.5913 6.3981 4.19011 7.24355 3.87957C7.86761 3.63292 8.80518 3.34318 10.5436 3.25402C12.4381 3.18716 12.9953 3.16487 17.7634 3.16487L17.8303 3.20945ZM17.8303 8.67443C16.6279 8.67443 15.4373 8.91125 14.3265 9.37138C13.2156 9.8315 12.2063 10.5059 11.3561 11.3561C10.5059 12.2063 9.8315 13.2156 9.37137 14.3265C8.91125 15.4373 8.67443 16.6279 8.67443 17.8303C8.67443 19.0326 8.91125 20.2232 9.37137 21.3341C9.8315 22.4449 10.5059 23.4542 11.3561 24.3044C12.2063 25.1546 13.2156 25.829 14.3265 26.2892C15.4373 26.7493 16.6279 26.9861 17.8303 26.9861C20.2586 26.9861 22.5874 26.0215 24.3044 24.3044C26.0215 22.5874 26.9861 20.2586 26.9861 17.8303C26.9861 15.402 26.0215 13.0732 24.3044 11.3561C22.5874 9.63906 20.2586 8.67443 17.8303 8.67443ZM17.8303 23.7737C14.5465 23.7737 11.8868 21.114 11.8868 17.8303C11.8868 14.5465 14.5465 11.8868 17.8303 11.8868C21.114 11.8868 23.7737 14.5465 23.7737 17.8303C23.7737 21.114 21.114 23.7737 17.8303 23.7737ZM29.4883 8.31336C29.4677 8.86703 29.2332 9.39114 28.8342 9.77555C28.4352 10.16 27.9027 10.3747 27.3487 10.3747C26.7946 10.3747 26.2621 10.16 25.8631 9.77555C25.4641 9.39114 25.2297 8.86703 25.209 8.31336C25.209 7.7459 25.4345 7.20167 25.8357 6.80042C26.237 6.39916 26.7812 6.17373 27.3487 6.17373C27.9161 6.17373 28.4604 6.39916 28.8616 6.80042C29.2629 7.20167 29.4883 7.7459 29.4883 8.31336Z" fill="#634C39"/>
</svg>
